<svg width="1024" height="1536" viewBox="0 0 1024 1536" fill="none" xmlns="http://www.w3.org/2000/svg">
<path d="M619.667 118.286C624.097 118.237 628.526 118.2 632.955 118.177C634.459 118.167 635.963 118.153 637.467 118.135C639.64 118.111 641.812 118.1 643.984 118.091C645.288 118.081 646.592 118.07 647.935 118.059C651.793 118.294 655.001 119.1 658.667 120.286C659.646 120.547 660.624 120.807 661.632 121.075C677.075 125.418 689.608 132.853 701.667 143.286C702.712 144.178 702.712 144.178 703.777 145.087C716.875 157.194 725.161 175.353 729.667 192.286C730.018 193.425 730.369 194.563 730.73 195.736C732.338 201.825 732.435 208.023 732.667 214.286C732.711 215.315 732.711 215.315 732.754 216.364C733.583 238.959 729.855 261.433 726.605 283.724C723.499 304.935 723.499 304.935 721.667 326.286C721.607 327.376 721.547 328.465 721.485 329.587C718.867 380.282 726.563 430.367 734.667 480.286C734.829 481.281 734.99 482.276 735.156 483.301C746.406 552.548 762.469 620.029 783.208 687.021C790.884 711.819 797.447 736.461 800.667 762.286C800.754 762.955 800.84 763.625 800.929 764.314C801.586 769.715 801.828 775.028 801.835 780.466C801.839 781.318 801.842 782.171 801.846 783.049C801.851 784.845 801.853 786.642 801.853 788.439C801.855 791.12 801.873 793.801 801.892 796.482C802.099 858.759 777.786 918.14 734.324 962.689C732.449 964.566 730.562 966.429 728.667 968.286C728.909 968.798 729.15 969.31 729.398 969.837C733.723 979.069 737.896 988.287 741.105 997.974C741.339 998.678 741.573 999.382 741.814 1000.11C749.145 1022.99 748.407 1046.99 737.949 1068.88C733.347 1077.65 727.363 1085.04 720.667 1092.29C720.182 1092.82 719.696 1093.36 719.196 1093.91C699.505 1115.4 673.436 1128.65 646.667 1139.29C645.905 1139.59 645.142 1139.9 644.356 1140.22C613.242 1152.65 579.944 1159.88 546.667 1163.29C545.773 1163.38 544.879 1163.47 543.958 1163.57C535.16 1164.41 526.372 1164.53 517.542 1164.54C516.362 1164.54 516.362 1164.54 515.158 1164.54C500.835 1164.53 486.823 1163.58 472.667 1161.29C471.826 1161.15 470.984 1161.02 470.116 1160.88C438.802 1155.67 410.26 1142.75 387.667 1120.29C387.196 1119.82 386.724 1119.35 386.238 1118.87C374.336 1106.9 359.12 1080.92 353.008 1065.75C352.493 1064.35 353.008 1065.72 352.531 1064.31C351.767 1061.93 351.284 1059.6 350.73 1057.16C350.559 1056.42 350.388 1055.68 350.211 1054.91C348.795 1048.46 347.793 1041.96 346.917 1035.41C346.79 1034.47 346.662 1033.54 346.531 1032.57C345.35 1023.15 345.173 1014.07 346.98 1004.72C347.113 1004 347.246 1003.28 347.384 1002.53C348.44 996.999 349.822 991.614 351.667 986.286C351.007 986.286 350.347 986.286 349.667 986.286C346.407 982.844 343.565 979.036 340.667 975.286C339.877 974.272 339.087 973.257 338.273 972.212C309.781 934.572 296.23 837.551 296.23 837.551L295.863 835.326C294.927 829.745 294.927 829.621 294.927 829.621C294.927 829.621 294.667 827.847 294.667 827.286C294.686 815.954 295.667 798.286 295.667 798.286L294.816 796.86C293.667 795.286 293.667 795.286 293.667 795.286C291.153 793.655 288.672 792.21 286.042 790.786C253.944 772.642 232.976 742.619 222.941 707.439C207.5 649.569 211.95 577.492 241.581 524.775C255.6 500.798 276.571 483.506 302.921 474.978C321.132 470.393 341.216 472.614 358.46 479.517C360.75 480.451 360.75 480.451 363.667 480.286C364.213 479.187 364.758 478.087 365.32 476.954C369.966 467.773 374.751 459.956 381.667 452.286C382.348 451.476 383.029 450.665 383.73 449.829C395.989 435.392 413.772 425.959 432.667 424.286C447.692 423.379 461.439 425.311 475.667 430.286C475.682 429.636 475.697 428.986 475.712 428.316C476.459 397.895 479.829 368.199 484.716 338.209C485.037 336.235 485.353 334.261 485.667 332.286C486.017 330.396 486.016 330.367 486.373 328.439C487.423 324.79 486.538 328.439 487.423 324.79C487.948 323.195 487.423 324.768 487.948 323.195C488.105 322.17 487.948 323.195 488.105 322.17C488.914 318.349 488.105 322.17 488.914 318.349C489.706 310.496 491.784 302.915 493.73 295.286C493.93 294.495 494.13 293.703 494.336 292.887C501.535 264.44 510.764 237.108 522.667 210.286C523.164 209.153 523.164 209.153 523.671 207.997C539.01 173.166 564.647 139.128 601.113 124.947C607.232 122.705 613.302 120.687 619.667 119.286C619.667 118.956 619.667 118.626 619.667 118.286ZM586.14 192.22C578.209 202.056 572.013 212.709 566.674 224.134C565.993 225.589 565.305 227.041 564.61 228.49C536.05 288.085 521.294 359.429 519.667 425.286C519.635 426.488 519.635 426.488 519.601 427.713C518.121 490.545 530.491 552.678 554.418 610.673C562.236 629.699 566.875 647.729 567.667 668.286C584.986 667.619 600.107 662.527 615.667 655.286C616.928 654.701 616.928 654.701 618.214 654.105C627.882 649.565 637.128 644.741 645.825 638.51C651.204 634.69 655.94 632.509 662.644 633.626C667.147 635.095 670.343 638.094 672.769 642.111C675.02 647.297 675.476 652.713 674.667 658.286C670.419 667.708 659.131 673.021 650.417 677.661C649.37 678.222 648.323 678.782 647.245 679.359C614.134 696.817 580.149 706.064 542.605 702.099C540.735 701.905 540.735 701.905 538.828 701.707C529.043 700.644 519.328 699.244 509.605 697.724C467.243 690.788 467.243 690.788 427.855 704.974C417.46 713.003 412.953 723.2 411.136 736.04C408.923 761.365 415.062 788.968 430.886 809.111C442.339 822.441 459.563 832.864 476.667 837.286C477.908 837.624 479.148 837.962 480.425 838.31C490.188 840.861 499.581 842.183 509.667 842.286C510.735 842.299 511.802 842.312 512.902 842.325C527.595 841.86 543.061 837.71 556.667 832.286C557.657 831.956 558.647 831.626 559.667 831.286C571.119 826.541 582.549 821.636 593.417 815.661C616.898 802.804 641.368 794.177 668.292 793.911C669.192 793.897 670.092 793.884 671.019 793.869C678.338 793.922 684.918 794.946 690.605 799.786C693.667 804.111 694.611 809.06 694.667 814.286C693.816 818.763 692.477 822.673 689.011 825.763C684.152 828.725 679.303 829.424 673.73 829.286C650.13 829.16 630.334 836.637 609.688 847.25C604.346 849.99 598.975 852.673 593.594 855.334C591.761 856.24 589.931 857.152 588.101 858.064C548.188 877.385 503.55 884.986 460.667 871.286C444.353 865.533 429.702 857.741 416.667 846.286C415.837 845.601 415.007 844.915 414.152 844.208C398.255 830.711 388.416 812.786 381.667 793.286C377.477 794.002 373.624 795.29 369.605 796.661C360.155 799.767 350.508 801.046 340.667 802.286C337.215 849.821 341.924 905.237 373.949 943.204C389.004 960.457 407.812 973.308 430.667 977.286C432.316 977.342 433.967 977.349 435.617 977.314C436.548 977.301 437.479 977.289 438.439 977.277C440.363 977.242 442.288 977.203 444.212 977.159C452.827 977.059 461.985 977.24 468.667 983.286C472.242 988.112 473.32 992.872 473.054 998.825C472.241 1004 470.056 1007.78 466.542 1011.6C452.54 1019.82 432.658 1018.62 417.511 1014.73C411.887 1013.13 406.294 1011.38 400.894 1009.13C398.597 1008.11 398.597 1008.11 395.667 1008.29C395.007 1007.63 394.347 1006.97 393.667 1006.29C388.337 1030.48 396.692 1053.51 409.433 1073.87C412.243 1078.24 415.337 1082.3 418.667 1086.29C419.122 1086.89 419.578 1087.49 420.046 1088.1C434.585 1106.62 460.924 1113.51 483.175 1116.56C507.019 1119.25 532.049 1118.21 555.667 1114.29C556.872 1114.09 558.077 1113.89 559.319 1113.68C578.142 1110.49 596.425 1105.92 614.667 1100.29C615.932 1099.91 615.932 1099.91 617.221 1099.52C640.503 1092.55 664.422 1082.63 682.667 1066.29C683.335 1065.7 684.003 1065.12 684.691 1064.51C693.04 1056.75 699.136 1045.57 699.871 1034.12C700.087 1018.15 694.996 1004.22 685.667 991.286C685.138 991.468 684.609 991.65 684.063 991.837C651.321 1002.93 616.841 1007.86 582.667 1000.29C581.515 1000.04 581.515 1000.04 580.339 999.782C550.977 993.229 510.106 977.766 491.667 952.286C489.071 946.97 489.328 941.932 490.667 936.286C492.502 931.936 494.582 929.034 498.48 926.349C504.765 924.254 509.785 923.562 516.019 925.892C520.185 928.085 523.794 930.97 527.532 933.816C551.844 952.092 580.567 962.511 610.917 962.536C611.633 962.537 612.348 962.538 613.085 962.538C624.503 962.521 635.529 961.956 646.667 959.286C647.389 959.115 648.11 958.943 648.853 958.766C670.811 953.334 693.161 941.986 708.667 925.286C709.298 924.638 709.928 923.99 710.578 923.322C744.578 887.282 758.749 835.032 757.851 786.45C756.844 753.047 747.38 721.41 736.975 689.924C725.875 656.328 716.093 622.487 709.164 587.765C708.629 585.093 708.056 582.43 707.476 579.767C707.254 578.745 707.031 577.724 706.802 576.671C706.457 575.088 706.457 575.088 706.105 573.474C705.871 572.399 705.637 571.325 705.396 570.218C704.82 567.574 704.244 564.93 703.667 562.286C703.513 562.068 703.513 562.068 703.513 562.068C703.126 561.22 703.116 561.202 703.106 561.098C702.47 554.741 701.086 548.719 699.882 542.447C699.516 540.5 699.15 538.554 698.785 536.608C698.496 535.079 698.496 535.079 698.202 533.519C694.602 514.4 691.272 495.252 688.23 476.036C688.063 474.982 687.896 473.928 687.724 472.841C685.025 455.756 685.025 455.756 684.038 449.023C683.863 447.836 683.688 446.65 683.507 445.427C683.365 444.437 683.224 443.448 683.077 442.428C682.88 440.312 683.077 442.428 682.393 438.029C681.709 433.63 681.545 433.586 680.949 428.411C679.667 424.286 680.949 428.411 679.667 424.286C678.975 418.215 679.667 424.286 678.975 418.215C678.667 414.286 678.667 414.286 678.667 414.286C678.455 411.516 678.295 408.764 678.175 405.99C678.092 404.249 678.009 402.509 677.926 400.769C677.863 399.411 677.863 399.411 677.799 398.025C677.631 394.519 677.436 391.014 677.241 387.509C676.065 366.152 675.453 345.088 676.545 323.718C676.73 318.538 676.663 313.366 676.592 308.184C676.667 305.286 676.902 305.445 677.203 303.47C677.505 301.495 678.211 300.327 678.429 298.341C678.576 297.055 678.722 295.769 678.874 294.444C678.991 293.4 678.991 293.4 679.11 292.335C680.291 281.849 681.597 271.398 683.265 260.978C683.402 260.121 683.538 259.265 683.679 258.383C684.347 254.215 685.031 250.051 685.737 245.889C689.014 229.807 689.014 229.807 686.667 214.286C686.562 212.871 686.483 211.454 686.417 210.036C685.181 197.076 679.364 185.473 669.98 176.536C641.932 153.454 607.506 167.875 586.14 192.22ZM410.679 485.486C393.921 508.817 389.158 540.424 386.667 568.286C386.597 569.053 386.526 569.82 386.454 570.61C383.152 608.349 385.56 648.176 400.667 683.286C401.327 683.286 401.987 683.286 402.667 683.286C403.472 682.276 404.276 681.265 405.105 680.224C417.373 665.485 438.929 660.859 457.105 659.099C458.729 658.959 460.352 658.82 461.976 658.681C462.503 658.636 462.502 658.621 466.059 658.422C467.053 658.484 466.059 658.422 467.053 658.484C468.705 658.422 467.053 658.484 468.705 658.422C480.792 659.246 492.846 660.158 504.855 661.786C506.187 661.964 506.187 661.964 507.547 662.145C511.309 662.679 514.807 663.327 518.468 664.38C521.402 665.211 523.646 665.469 526.667 665.286C525.049 652.338 520.107 641.13 514.944 629.242C502.339 600.063 493.455 570.199 487.746 538.947C487.124 535.561 486.434 532.232 485.558 528.904C484.751 525.626 484.344 522.709 484.167 519.349C484.059 517.568 484.059 517.568 483.949 515.751C483.907 515.068 483.866 514.384 483.824 513.68C483.491 508.587 483.073 503.5 482.667 498.411C482.543 496.807 482.543 496.807 482.415 495.169C481.967 489.518 481.426 483.905 480.667 478.286C455.198 468.299 430.645 462.146 410.679 485.486ZM287.667 535.286C259.312 570.803 255.401 623.747 260.265 667.134C264.142 697.514 274.189 725.532 297.667 746.286C313.062 757.861 331.237 764.296 350.542 761.935C359.365 760.489 367.057 757.982 374.667 753.286C374.559 752.395 374.559 752.395 374.449 751.486C373.603 743.934 373.097 736.419 374.14 728.865C375.188 720.799 374.549 716.835 369.765 710.282C337.125 663.662 342.047 587.524 351.242 534.789C351.779 531.628 352.237 528.463 352.667 525.286C351.677 525.616 350.687 525.946 349.667 526.286C349.997 525.296 350.327 524.306 350.667 523.286C348.627 522.636 346.585 521.991 344.542 521.349C343.405 520.989 342.269 520.63 341.097 520.259C321.112 514.591 301.667 519.973 287.667 535.286Z" fill="url(#paint0_linear_19_14)"/>
<path d="M218 643C218.33 643 218.66 643 219 643C219 644.65 219 646.3 219 648C218.67 648 218.34 648 218 648C218 646.35 218 644.7 218 643Z" fill="black"/>
<path d="M517 1167C521 1168 521 1168 521 1168L517 1167Z" fill="black"/>
<path d="M442 424C446 425 446 425 446 425L442 424Z" fill="black"/>
<path d="M526 417C527 421 527 421 527 421L526 417Z" fill="black"/>
<path d="M525 1167C528 1168 528 1168 528 1168L525 1167Z" fill="black"/>
<path d="M568 1112C571 1113 571 1113 571 1113L568 1112Z" fill="black"/>
<path d="M924 1090C927 1091 927 1091 927 1091L924 1090Z" fill="black"/>
<path d="M597 961C600 962 600 962 600 962L597 961Z" fill="black"/>
<path d="M737 688C737.66 688 738.32 688 739 688C738.67 688.66 738.34 689.32 738 690C737.67 689.34 737.34 688.68 737 688Z" fill="black"/>
<path d="M432 664C435 665 435 665 435 665L432 664Z" fill="black"/>
<path d="M431 425C434 426 434 426 434 426L431 425Z" fill="black"/>
<path d="M529 1167C531 1168 531 1168 531 1168L529 1167Z" fill="black"/>
<path d="M509 1167C511 1168 511 1168 511 1168L509 1167Z" fill="black"/>
<path d="M506 1167C508 1168 508 1168 508 1168L506 1167Z" fill="black"/>
<path d="M596 1158C598 1159 598 1159 598 1159L596 1158Z" fill="black"/>
<path d="M601 1157C603 1158 603 1158 603 1158L601 1157Z" fill="black"/>
<path d="M410 1139C412 1140 412 1140 412 1140L410 1139Z" fill="black"/>
<path d="M695 1119C697 1120 697 1120 697 1120L695 1119Z" fill="black"/>
<path d="M530 1117C532 1118 532 1118 532 1118L530 1117Z" fill="black"/>
<path d="M523 1117C525 1118 525 1118 525 1118L523 1117Z" fill="#000101"/>
<path d="M514 1117C516 1118 516 1118 516 1118L514 1117Z" fill="black"/>
<path d="M507 1117C509 1118 509 1118 509 1118L507 1117Z" fill="black"/>
<path d="M499 1117C501 1118 501 1118 501 1118L499 1117Z" fill="black"/>
<path d="M644 1090C646 1091 646 1091 646 1091L644 1090Z" fill="black"/>
<path d="M532 1090C534 1091 534 1091 534 1091L532 1090Z" fill="black"/>
<path d="M649 1088C651 1089 651 1089 651 1089L649 1088Z" fill="#000100"/>
<path d="M453 1020C455 1021 455 1021 455 1021L453 1020Z" fill="black"/>
<path d="M698 1015C700 1016 700 1016 700 1016L698 1015Z" fill="black"/>
<path d="M629 1007C631 1008 631 1008 631 1008L629 1007Z" fill="black"/>
<path d="M528 840C530 841 530 841 530 841L528 840Z" fill="black"/>
<path d="M355 761C357 762 357 762 357 762L355 761Z" fill="black"/>
<path d="M486 658C488 659 488 659 488 659L486 658Z" fill="black"/>
<path d="M616 656C618 657 618 657 618 657L616 656Z" fill="black"/>
<path d="M632 648C634 649 634 649 634 649L632 648Z" fill="black"/>
<path d="M475 478C477 479 477 479 477 479L475 478Z" fill="black"/>
<path d="M348 475C350 476 350 476 350 476L348 475Z" fill="black"/>
<path d="M324 473C326 474 326 474 326 474L324 473Z" fill="black"/>
<path d="M543 178C545 179 545 179 545 179L543 178Z" fill="#000100"/>
<path d="M595 129C597 130 597 130 597 130L595 129Z" fill="black"/>
<defs>
<linearGradient id="paint0_linear_19_14" x1="590.442" y1="64.1428" x2="508.066" y2="1355.49" gradientUnits="userSpaceOnUse">
<stop offset="0.138704" stop-color="#FF6200"/>
<stop offset="0.577194"/>
</linearGradient>
</defs>
</svg>
